<?xml version="1.0" encoding="UTF-8"?>
<svg id="Layer_1" data-name="Layer 1" xmlns="http://www.w3.org/2000/svg" viewBox="0 0 691.78 445.17">
  <defs>
    <style>
      .cls-1, .cls-2 {
        stroke-width: 0px;
      }

      .cls-2 {
        fill: none;
      }
    </style>
  </defs>
  <g>
    <path class="cls-1" d="M660.63,300.89c0,21.49,0,42.98,0,64.46,0,1.54.02,3.08-.41,4.59-.93,3.28-3.1,4.95-6.16,4.73-2.5-.18-4.67-2.41-5.09-5.41-.19-1.36-.18-2.75-.18-4.13,0-39.65,0-79.3,0-118.95,0-.57-.05-1.14.01-1.7.22-1.95-.62-2.42-2.54-2.42-31.14.03-62.27-.02-93.41-.07-3.41,0-5.38-1.72-6.13-5.07-.32-1.44-.37-2.89-.37-4.35,0-40.38,0-80.76,0-121.14,0-1.37.12-2.75.33-4.11.51-3.34,2.48-5.03,5.77-5.02,3.28,0,5.17,1.66,5.64,5.13.21,1.52.24,3.07.24,4.61.01,37.06.01,74.11.01,111.17,0,.89.02,1.78,0,2.68-.02,1.22.54,1.79,1.77,1.73.73-.03,1.46,0,2.19,0,30.08,0,60.17,0,90.25,0,6.36,0,8.04,1.64,8.05,8.09.03,21.73,0,43.46.01,65.19Z"/>
    <path class="cls-1" d="M515.22,332.71c0-19.14,0-38.27,0-57.41,0-1.72.05-3.4.8-5,1.17-2.48,2.97-4.01,5.84-4,.32,0,.65-.01.97-.01,34.14,0,68.28,0,102.41-.02,2.82,0,5.14.68,6.36,3.47,1.35,3.08,1.38,6.15-.32,9.09-.68,1.17-1.87,1.79-3.25,1.89-1.13.08-2.27.09-3.4.09-31.22,0-62.44,0-93.66,0-3.76,0-3.77,0-3.77,3.66,0,34.71,0,69.41-.02,104.12,0,1.54-.08,3.08-.24,4.61-.36,3.47-2.52,5.9-5.28,6.05-2.92.16-5.68-2.31-6.2-5.75-.26-1.75-.25-3.56-.25-5.34-.02-18.49,0-36.98,0-55.46h0Z"/>
    <path class="cls-1" d="M680,265.39c0-41.27,0-82.53,0-123.8,0-.97,0-1.95.02-2.92.1-3.89,1.84-6,5.09-6.19,3.4-.2,6.17,2.22,6.59,5.81.1.8.08,1.62.08,2.43,0,83.18,0,166.36,0,249.55,0,1.45.08,2.91-.43,4.33-1.11,3.15-3.56,4.94-6.35,4.59-2.57-.33-4.64-2.73-4.94-5.86-.11-1.13-.06-2.27-.06-3.4,0-41.51,0-83.02,0-124.53Z"/>
    <path class="cls-1" d="M527.2,171.54c0,19.94,0,39.89,0,59.83,0,1.62-.07,3.24-.22,4.85-.3,3.25-1.83,5.01-4.6,5.41-2.77.41-5.42-1.2-6.55-3.96-.67-1.63-.6-3.33-.6-5.03,0-35.43,0-70.86,0-106.29,0-5.59.02-11.19.02-16.78,0-2.12.6-3.99,2.1-5.53,1.63-1.68,3.62-2.06,5.81-1.53,2.25.55,3.39,2.19,3.69,4.35.26,1.92.35,3.88.35,5.82.02,19.62.01,39.24.01,58.86Z"/>
    <path class="cls-1" d="M648.8,155.45c0-15,0-30,0-45,0-2.15.21-4.21,1.59-5.98,2.39-3.05,6.71-2.87,8.84.39,1.31,2.01,1.42,4.26,1.42,6.55,0,16.38,0,32.76,0,49.14,0,12.65,0,25.3,0,37.95,0,1.86.1,3.74-.44,5.56-.81,2.72-2.84,4.09-5.92,4.01-2.78-.08-4.51-1.49-5.2-4.23-.34-1.36-.28-2.74-.28-4.11,0-14.76,0-29.52,0-44.27h.01Z"/>
    <path class="cls-1" d="M558.36,349.84c0,13.93,0,27.87,0,41.8,0,1.21,0,2.44-.18,3.63-.55,3.74-2.29,5.3-5.74,5.27-3.46-.03-5.25-1.62-5.78-5.26-.19-1.28-.28-2.58-.28-3.87-.01-27.87-.01-55.73,0-83.6,0-1.21.07-2.43.28-3.62.62-3.49,2.59-5.1,6.01-5.04,3.31.06,4.98,1.62,5.5,5.25.17,1.2.19,2.42.19,3.63.01,13.93,0,27.87.01,41.8Z"/>
    <path class="cls-1" d="M661.16,391.5c-.07,4.23-2.45,7.51-5.6,7.69-3.03.17-6.14-2.93-6.88-6.76-.42-2.17-.02-4.23.88-6.16,1.64-3.5,6.19-4.27,9.03-1.62,1.72,1.61,2.62,4,2.57,6.85Z"/>
  </g>
  <rect class="cls-2" width="307" height="445.17"/>
</svg>